<?xml version="1.0" encoding="utf-8"?>
<!-- Generator: Adobe Illustrator 21.1.0, SVG Export Plug-In . SVG Version: 6.00 Build 0)  -->
<svg version="1.1" id="Layer_1" xmlns="http://www.w3.org/2000/svg" xmlns:xlink="http://www.w3.org/1999/xlink" x="0px" y="0px"
	 viewBox="0 0 560 236" style="enable-background:new 0 0 560 236;" xml:space="preserve">
<style type="text/css">
	.st0{fill:#FFFFFF;}
	.st1{fill:#141414;}
	.st2{fill:#8F7526;}
	.st3{fill:#6D6D6D;}
	.st4{fill:#7DBC00;}
	.st5{fill:#F54F0D;}
	.st6{fill:#F9BA00;}
	.st7{fill:#39A3F2;}
	.st8{fill:#E1E1E1;}
</style>
<rect class="st0" width="560" height="236"/>
<g>
	<g>
		<path class="st1" d="M72.7,87.7H69v-21c0-1.7,0.1-3.7,0.3-6.1h-0.1c-0.3,1.4-0.7,2.4-0.9,3L57.6,87.7h-1.8L45.1,63.8
			c-0.3-0.7-0.6-1.8-0.9-3.2h-0.1c0.1,1.3,0.2,3.3,0.2,6.1v21h-3.5V56.3h4.9l9.6,21.9c0.7,1.7,1.2,2.9,1.4,3.8h0.1
			c0.6-1.7,1.1-3,1.5-3.8l9.8-21.8h4.6V87.7z"/>
		<path class="st1" d="M81.8,59.6c-0.6,0-1.2-0.2-1.6-0.7c-0.5-0.4-0.7-1-0.7-1.7c0-0.7,0.2-1.2,0.7-1.7c0.5-0.4,1-0.7,1.6-0.7
			c0.7,0,1.2,0.2,1.7,0.7c0.5,0.4,0.7,1,0.7,1.7c0,0.6-0.2,1.2-0.7,1.6C83,59.4,82.5,59.6,81.8,59.6z M83.6,87.7H80V65.3h3.6V87.7z"
			/>
		<path class="st1" d="M105.7,86.7c-1.7,1-3.8,1.6-6.1,1.6c-3.2,0-5.8-1-7.7-3.1c-2-2.1-2.9-4.8-2.9-8.1c0-3.7,1.1-6.7,3.2-8.9
			c2.1-2.2,4.9-3.4,8.5-3.4c2,0,3.7,0.4,5.2,1.1v3.7c-1.7-1.2-3.4-1.7-5.3-1.7c-2.3,0-4.2,0.8-5.6,2.5c-1.5,1.6-2.2,3.8-2.2,6.5
			c0,2.6,0.7,4.7,2.1,6.2c1.4,1.5,3.2,2.3,5.5,2.3c2,0,3.8-0.6,5.5-1.9V86.7z"/>
		<path class="st1" d="M122.3,68.9c-0.6-0.5-1.5-0.7-2.7-0.7c-1.5,0-2.8,0.7-3.8,2.2s-1.5,3.4-1.5,5.9v11.4h-3.6V65.3h3.6v4.6h0.1
			c0.5-1.6,1.3-2.8,2.3-3.7c1-0.9,2.2-1.3,3.5-1.3c0.9,0,1.6,0.1,2.1,0.3V68.9z"/>
		<path class="st1" d="M134.5,88.2c-3.3,0-6-1-7.9-3.1c-2-2.1-3-4.9-3-8.3c0-3.8,1-6.7,3.1-8.8c2.1-2.1,4.8-3.2,8.3-3.2
			c3.3,0,5.9,1,7.8,3.1c1.9,2.1,2.8,4.9,2.8,8.6c0,3.6-1,6.4-3,8.6C140.6,87.1,137.9,88.2,134.5,88.2z M134.8,67.8
			c-2.3,0-4.1,0.8-5.5,2.4c-1.3,1.6-2,3.7-2,6.5c0,2.7,0.7,4.7,2,6.3c1.4,1.5,3.2,2.3,5.4,2.3c2.3,0,4.1-0.8,5.3-2.3
			c1.2-1.5,1.9-3.6,1.9-6.4c0-2.8-0.6-5-1.9-6.5S137.1,67.8,134.8,67.8z"/>
		<path class="st1" d="M149.6,86.9V83c2,1.4,4.1,2.2,6.5,2.2c3.1,0,4.7-1,4.7-3.1c0-0.6-0.1-1.1-0.4-1.5c-0.3-0.4-0.6-0.8-1.1-1.1
			c-0.5-0.3-1-0.6-1.6-0.9c-0.6-0.3-1.3-0.5-2-0.8c-1-0.4-1.9-0.8-2.6-1.2c-0.8-0.4-1.4-0.9-1.9-1.4c-0.5-0.5-0.9-1.1-1.1-1.7
			c-0.3-0.6-0.4-1.4-0.4-2.3c0-1,0.2-2,0.7-2.8c0.5-0.8,1.1-1.5,1.9-2c0.8-0.5,1.7-1,2.7-1.2c1-0.3,2.1-0.4,3.2-0.4
			c1.9,0,3.7,0.3,5.2,1v3.6c-1.6-1.1-3.5-1.6-5.7-1.6c-0.7,0-1.3,0.1-1.8,0.2c-0.5,0.2-1,0.4-1.4,0.6c-0.4,0.3-0.7,0.6-0.9,1
			c-0.2,0.4-0.3,0.8-0.3,1.3c0,0.6,0.1,1.1,0.3,1.5s0.5,0.7,0.9,1c0.4,0.3,0.9,0.6,1.5,0.8c0.6,0.2,1.2,0.5,2,0.8
			c1,0.4,1.9,0.8,2.7,1.2c0.8,0.4,1.5,0.9,2,1.4c0.6,0.5,1,1.1,1.3,1.7c0.3,0.7,0.4,1.4,0.4,2.3c0,1.1-0.2,2.1-0.7,2.9
			c-0.5,0.8-1.1,1.5-2,2c-0.8,0.5-1.8,0.9-2.8,1.2c-1.1,0.3-2.2,0.4-3.3,0.4C153.3,88.2,151.3,87.8,149.6,86.9z"/>
		<path class="st1" d="M178.9,88.2c-3.3,0-6-1-7.9-3.1c-2-2.1-3-4.9-3-8.3c0-3.8,1-6.7,3.1-8.8c2.1-2.1,4.8-3.2,8.3-3.2
			c3.3,0,5.9,1,7.8,3.1c1.9,2.1,2.8,4.9,2.8,8.6c0,3.6-1,6.4-3,8.6C185,87.1,182.3,88.2,178.9,88.2z M179.1,67.8
			c-2.3,0-4.1,0.8-5.5,2.4c-1.3,1.6-2,3.7-2,6.5c0,2.7,0.7,4.7,2,6.3c1.4,1.5,3.2,2.3,5.4,2.3c2.3,0,4.1-0.8,5.3-2.3
			c1.2-1.5,1.9-3.6,1.9-6.4c0-2.8-0.6-5-1.9-6.5S181.4,67.8,179.1,67.8z"/>
		<path class="st1" d="M205.6,57.7c-0.7-0.4-1.5-0.6-2.4-0.6c-2.5,0-3.8,1.6-3.8,4.7v3.5h5.2v3.1h-5.2v19.3h-3.6V68.4H192v-3.1h3.8
			v-3.6c0-2.3,0.7-4.2,2-5.6c1.4-1.4,3-2,5.1-2c1.1,0,2,0.1,2.6,0.4V57.7z"/>
		<path class="st1" d="M219.3,87.5c-0.8,0.5-2,0.7-3.3,0.7c-3.9,0-5.9-2.2-5.9-6.6V68.4h-3.8v-3.1h3.8v-5.5l3.6-1.2v6.6h5.6v3.1
			h-5.6V81c0,1.5,0.3,2.6,0.8,3.2c0.5,0.6,1.4,1,2.5,1c0.9,0,1.7-0.2,2.3-0.7V87.5z"/>
	</g>
</g>
<g>
	<g>
		<path class="st1" d="M268.9,139.3h-2.4l-1.2-3.4h-5.2l-1.2,3.4h-2.4l5-13.3h2.5L268.9,139.3z M264.7,134.1l-1.8-5.3
			c-0.1-0.2-0.1-0.5-0.2-0.8h0c-0.1,0.4-0.1,0.6-0.2,0.8l-1.8,5.3H264.7z"/>
		<path class="st1" d="M272.5,139.3h-2.2v-14.1h2.2V139.3z"/>
		<path class="st1" d="M277.3,139.3h-2.2v-14.1h2.2V139.3z"/>
		<path class="st1" d="M281,127.8c-0.4,0-0.7-0.1-0.9-0.3s-0.4-0.5-0.4-0.9s0.1-0.6,0.4-0.9s0.6-0.4,0.9-0.4c0.4,0,0.7,0.1,0.9,0.4
			c0.3,0.2,0.4,0.5,0.4,0.9c0,0.3-0.1,0.6-0.4,0.9C281.7,127.7,281.4,127.8,281,127.8z M282.1,139.3h-2.2v-9.5h2.2V139.3z"/>
		<path class="st1" d="M292,139.3h-2.1v-1.5h0c-0.7,1.1-1.6,1.7-2.9,1.7c-0.9,0-1.7-0.3-2.2-0.8c-0.5-0.5-0.8-1.2-0.8-2
			c0-1.8,1-2.8,3.1-3.1l2.8-0.4c0-1.4-0.6-2-1.9-2c-1.1,0-2.2,0.4-3.1,1.2v-1.9c1-0.6,2.2-0.9,3.5-0.9c2.4,0,3.6,1.2,3.6,3.5V139.3z
			 M289.9,134.6l-2,0.3c-0.6,0.1-1.1,0.2-1.4,0.5c-0.3,0.2-0.5,0.6-0.5,1.2c0,0.4,0.1,0.7,0.4,1c0.3,0.3,0.7,0.4,1.2,0.4
			c0.7,0,1.2-0.2,1.6-0.7c0.4-0.5,0.6-1,0.6-1.7V134.6z"/>
		<path class="st1" d="M302.9,139.3h-2.2v-5.4c0-1.8-0.6-2.7-1.9-2.7c-0.7,0-1.2,0.2-1.6,0.7s-0.6,1.1-0.6,1.9v5.4h-2.2v-9.5h2.2
			v1.6h0c0.7-1.2,1.7-1.8,3.1-1.8c1,0,1.8,0.3,2.4,1s0.8,1.6,0.8,2.9V139.3z"/>
		<path class="st1" d="M312.1,138.8c-0.8,0.4-1.7,0.7-2.7,0.7c-1.4,0-2.6-0.4-3.4-1.3c-0.9-0.9-1.3-2-1.3-3.4c0-1.6,0.5-2.8,1.4-3.8
			c0.9-1,2.2-1.4,3.7-1.4c0.9,0,1.6,0.2,2.3,0.5v2c-0.7-0.5-1.4-0.7-2.1-0.7c-0.9,0-1.7,0.3-2.2,0.9c-0.6,0.6-0.9,1.4-0.9,2.4
			c0,1,0.3,1.8,0.8,2.3c0.5,0.6,1.3,0.9,2.2,0.9c0.8,0,1.5-0.3,2.2-0.8V138.8z"/>
		<path class="st1" d="M322.1,135.1h-6.5c0,0.9,0.3,1.6,0.8,2c0.5,0.5,1.2,0.7,2.1,0.7c1,0,1.9-0.3,2.8-0.9v1.7
			c-0.9,0.5-2,0.8-3.4,0.8c-1.4,0-2.5-0.4-3.3-1.3s-1.2-2.1-1.2-3.6c0-1.5,0.4-2.7,1.3-3.6c0.9-0.9,2-1.4,3.3-1.4s2.3,0.4,3,1.3
			c0.7,0.8,1.1,2,1.1,3.5V135.1z M320.1,133.6c0-0.8-0.2-1.4-0.5-1.8s-0.9-0.6-1.5-0.6c-0.6,0-1.1,0.2-1.6,0.7
			c-0.4,0.5-0.7,1-0.8,1.8H320.1z"/>
		<path class="st1" d="M328.7,138.8v-2.3c0.2,0.2,0.4,0.4,0.7,0.5c0.3,0.1,0.6,0.3,0.9,0.4c0.3,0.1,0.6,0.2,0.9,0.2
			c0.3,0.1,0.6,0.1,0.9,0.1c0.9,0,1.6-0.2,2.1-0.5s0.7-0.8,0.7-1.3c0-0.3-0.1-0.6-0.2-0.8c-0.2-0.2-0.4-0.4-0.6-0.6
			c-0.3-0.2-0.6-0.4-1-0.6c-0.4-0.2-0.8-0.4-1.2-0.6c-0.5-0.2-0.9-0.5-1.3-0.7c-0.4-0.2-0.7-0.5-1-0.8c-0.3-0.3-0.5-0.6-0.7-1
			c-0.2-0.4-0.2-0.8-0.2-1.3c0-0.6,0.1-1.2,0.4-1.6c0.3-0.5,0.7-0.8,1.1-1.1s1-0.5,1.6-0.7s1.2-0.2,1.8-0.2c1.4,0,2.4,0.2,3,0.5v2.2
			c-0.8-0.5-1.7-0.8-2.9-0.8c-0.3,0-0.7,0-1,0.1s-0.6,0.2-0.9,0.3c-0.3,0.1-0.5,0.3-0.6,0.5s-0.2,0.5-0.2,0.8c0,0.3,0.1,0.6,0.2,0.8
			c0.1,0.2,0.3,0.4,0.5,0.6c0.2,0.2,0.5,0.4,0.9,0.5s0.7,0.4,1.2,0.6c0.5,0.2,0.9,0.5,1.3,0.8c0.4,0.3,0.8,0.6,1.1,0.9
			c0.3,0.3,0.6,0.7,0.7,1.1c0.2,0.4,0.3,0.8,0.3,1.3c0,0.7-0.1,1.2-0.4,1.7c-0.3,0.5-0.6,0.8-1.1,1.1s-1,0.5-1.6,0.6
			c-0.6,0.1-1.2,0.2-1.9,0.2c-0.2,0-0.5,0-0.8-0.1c-0.3,0-0.7-0.1-1-0.1c-0.3-0.1-0.7-0.1-1-0.2S328.9,138.9,328.7,138.8z"/>
		<path class="st1" d="M341.7,139.3h-2.3V126h2.3V139.3z"/>
		<path class="st1" d="M360.8,139.3h-2.4l-1.2-3.4h-5.2l-1.2,3.4h-2.4l5-13.3h2.5L360.8,139.3z M356.6,134.1l-1.8-5.3
			c-0.1-0.2-0.1-0.5-0.2-0.8h0c-0.1,0.4-0.1,0.6-0.2,0.8l-1.8,5.3H356.6z"/>
		<path class="st1" d="M374.7,129.8l-2.8,9.5h-2.3l-1.7-6.4c-0.1-0.2-0.1-0.5-0.1-0.8h0c0,0.2-0.1,0.5-0.2,0.8l-1.9,6.5h-2.2
			l-2.8-9.5h2.2l1.7,6.9c0.1,0.2,0.1,0.5,0.1,0.8h0.1c0-0.3,0.1-0.5,0.1-0.8l1.9-6.8h2l1.7,6.9c0.1,0.2,0.1,0.5,0.1,0.8h0.1
			c0-0.2,0.1-0.5,0.1-0.8l1.7-6.9H374.7z"/>
		<path class="st1" d="M383.4,139.3h-2.1v-1.5h0c-0.7,1.1-1.6,1.7-2.9,1.7c-0.9,0-1.7-0.3-2.2-0.8c-0.5-0.5-0.8-1.2-0.8-2
			c0-1.8,1-2.8,3.1-3.1l2.8-0.4c0-1.4-0.6-2-1.9-2c-1.1,0-2.2,0.4-3.1,1.2v-1.9c1-0.6,2.2-0.9,3.5-0.9c2.4,0,3.6,1.2,3.6,3.5V139.3z
			 M381.4,134.6l-2,0.3c-0.6,0.1-1.1,0.2-1.4,0.5c-0.3,0.2-0.5,0.6-0.5,1.2c0,0.4,0.1,0.7,0.4,1c0.3,0.3,0.7,0.4,1.2,0.4
			c0.7,0,1.2-0.2,1.6-0.7c0.4-0.5,0.6-1,0.6-1.7V134.6z"/>
		<path class="st1" d="M391.4,131.8c-0.3-0.2-0.6-0.3-1.1-0.3c-0.6,0-1.2,0.3-1.6,0.9s-0.6,1.4-0.6,2.4v4.6h-2.2v-9.5h2.2v2h0
			c0.2-0.7,0.5-1.2,1-1.6c0.4-0.4,0.9-0.6,1.5-0.6c0.4,0,0.7,0.1,0.9,0.2V131.8z"/>
		<path class="st1" d="M401.2,139.3h-2.2v-1.6h0c-0.7,1.2-1.8,1.8-3.2,1.8c-1.2,0-2.1-0.4-2.8-1.3c-0.7-0.9-1.1-2-1.1-3.5
			c0-1.6,0.4-2.8,1.2-3.8s1.8-1.4,3.1-1.4c1.3,0,2.2,0.5,2.8,1.5h0v-5.9h2.2V139.3z M399.1,134.9v-1.2c0-0.7-0.2-1.2-0.7-1.7
			s-1-0.7-1.7-0.7c-0.8,0-1.4,0.3-1.9,0.9c-0.5,0.6-0.7,1.4-0.7,2.5c0,1,0.2,1.7,0.7,2.3s1,0.8,1.8,0.8c0.7,0,1.3-0.3,1.8-0.8
			C398.9,136.4,399.1,135.8,399.1,134.9z"/>
	</g>
</g>
<g>
	<path class="st2" d="M266.1,110.9h-8.8v-1.1c0-0.4,0.1-0.9,0.2-1.2c0.1-0.4,0.3-0.8,0.5-1.1c0.2-0.3,0.5-0.7,0.7-1
		c0.3-0.3,0.6-0.6,0.9-0.9c0.3-0.3,0.6-0.6,1-0.8c0.3-0.3,0.7-0.5,1-0.8c0.3-0.3,0.6-0.5,0.8-0.7c0.2-0.2,0.5-0.5,0.6-0.8
		c0.2-0.3,0.3-0.5,0.4-0.8c0.1-0.3,0.1-0.6,0.1-0.9c0-0.4-0.1-0.7-0.2-1c-0.1-0.3-0.3-0.5-0.5-0.7c-0.2-0.2-0.4-0.3-0.7-0.4
		c-0.3-0.1-0.6-0.1-0.9-0.1c-0.6,0-1.2,0.1-1.7,0.4c-0.6,0.3-1.2,0.7-1.7,1.2V98c0.3-0.2,0.6-0.4,0.9-0.6c0.3-0.2,0.6-0.3,0.9-0.4
		c0.3-0.1,0.6-0.2,1-0.2c0.3-0.1,0.7-0.1,1.1-0.1c0.6,0,1.2,0.1,1.7,0.2c0.5,0.2,1,0.4,1.3,0.7c0.4,0.3,0.6,0.7,0.8,1.2
		c0.2,0.5,0.3,1,0.3,1.7c0,0.6-0.1,1.1-0.2,1.5c-0.1,0.5-0.3,0.9-0.6,1.3c-0.3,0.4-0.6,0.8-0.9,1.1c-0.4,0.4-0.8,0.7-1.2,1.1
		c-0.4,0.3-0.8,0.6-1.1,0.9c-0.4,0.3-0.7,0.6-1,0.8c-0.3,0.3-0.5,0.6-0.7,0.8c-0.2,0.3-0.3,0.6-0.3,0.8v0h6.3V110.9z"/>
	<path class="st2" d="M272.2,111.2c-1.5,0-2.6-0.6-3.4-1.8c-0.8-1.2-1.2-2.9-1.2-5.2c0-2.5,0.4-4.3,1.3-5.6c0.9-1.3,2.1-1.9,3.7-1.9
		c3.1,0,4.6,2.4,4.6,7.2c0,2.4-0.4,4.2-1.3,5.4C275,110.5,273.8,111.2,272.2,111.2z M272.5,98.5c-1.7,0-2.5,1.9-2.5,5.6
		c0,3.5,0.8,5.2,2.5,5.2c1.6,0,2.5-1.8,2.5-5.3C274.9,100.3,274.1,98.5,272.5,98.5z"/>
	<path class="st2" d="M283.3,96.6v14.3h-2.3V99.4c-0.4,0.3-0.9,0.5-1.3,0.7c-0.5,0.2-1,0.4-1.6,0.5v-1.9c0.4-0.1,0.7-0.3,1.1-0.4
		c0.4-0.1,0.7-0.3,1-0.5c0.3-0.2,0.7-0.4,1-0.6c0.3-0.2,0.7-0.4,1.1-0.7H283.3z"/>
	<path class="st2" d="M294.8,98.1c-0.6,1.1-1.1,2.1-1.7,3.2c-0.5,1.1-1,2.1-1.4,3.2s-0.8,2.1-1.1,3.2c-0.3,1.1-0.6,2.2-0.7,3.3h-2.4
		c0.2-1,0.4-2,0.7-3c0.3-1,0.6-2,1-3c0.4-1,0.8-2,1.3-3c0.5-1,1-2,1.5-3.1h-6.6v-1.9h9.3V98.1z"/>
	<path class="st2" d="M303.8,105.9v5.1h-2.3v-14h4.2c1.6,0,2.9,0.4,3.7,1.1c0.9,0.7,1.3,1.8,1.3,3.2c0,1.4-0.5,2.5-1.4,3.3
		c-0.9,0.9-2.2,1.3-3.7,1.3H303.8z M303.8,98.9v5.1h1.5c1,0,1.8-0.2,2.3-0.7s0.8-1.1,0.8-2c0-1.6-1-2.5-2.9-2.5H303.8z"/>
	<path class="st2" d="M319.4,110.9h-2.2v-1.6h0c-0.7,1.2-1.7,1.8-3,1.8c-1,0-1.8-0.3-2.3-0.8c-0.6-0.5-0.8-1.2-0.8-2.1
		c0-1.9,1.1-3,3.3-3.3l3-0.4c0-1.4-0.7-2.1-2-2.1c-1.2,0-2.3,0.4-3.2,1.2v-2c1.1-0.6,2.3-0.9,3.6-0.9c2.5,0,3.8,1.2,3.8,3.7V110.9z
		 M317.2,106l-2.1,0.3c-0.7,0.1-1.1,0.2-1.5,0.5c-0.3,0.2-0.5,0.6-0.5,1.2c0,0.4,0.2,0.8,0.5,1c0.3,0.3,0.7,0.4,1.2,0.4
		c0.7,0,1.3-0.2,1.7-0.7c0.5-0.5,0.7-1.1,0.7-1.8V106z"/>
	<path class="st2" d="M327.4,103.1c-0.3-0.2-0.7-0.3-1.2-0.3c-0.7,0-1.2,0.3-1.7,0.9c-0.4,0.6-0.7,1.4-0.7,2.5v4.8h-2.3v-10h2.3v2.1
		h0c0.2-0.7,0.6-1.3,1-1.6c0.5-0.4,1-0.6,1.5-0.6c0.4,0,0.7,0.1,0.9,0.2V103.1z"/>
	<path class="st2" d="M334.2,110.8c-0.4,0.2-1,0.3-1.7,0.3c-1.9,0-2.9-0.9-2.9-2.8v-5.6h-1.7v-1.8h1.7v-2.3l2.3-0.6v3h2.4v1.8h-2.4
		v5c0,0.6,0.1,1,0.3,1.3c0.2,0.3,0.6,0.4,1.1,0.4c0.4,0,0.7-0.1,1-0.3V110.8z"/>
	<path class="st2" d="M344.5,110.9h-2.3v-5.6c0-1.9-0.7-2.8-2-2.8c-0.7,0-1.3,0.3-1.7,0.8c-0.4,0.5-0.7,1.2-0.7,2v5.7h-2.3v-10h2.3
		v1.7h0c0.7-1.3,1.8-1.9,3.2-1.9c1.1,0,1.9,0.4,2.5,1.1c0.6,0.7,0.9,1.7,0.9,3.1V110.9z"/>
	<path class="st2" d="M355.1,106.5h-6.8c0,0.9,0.3,1.6,0.9,2.1c0.5,0.5,1.3,0.8,2.2,0.8c1.1,0,2-0.3,2.9-1v1.8
		c-0.9,0.6-2.1,0.9-3.6,0.9c-1.5,0-2.6-0.5-3.5-1.4c-0.8-0.9-1.3-2.2-1.3-3.8c0-1.6,0.5-2.8,1.4-3.8c0.9-1,2.1-1.5,3.4-1.5
		s2.4,0.4,3.2,1.3c0.7,0.9,1.1,2.1,1.1,3.7V106.5z M352.9,104.9c0-0.8-0.2-1.4-0.6-1.9c-0.4-0.5-0.9-0.7-1.6-0.7
		c-0.7,0-1.2,0.2-1.7,0.7c-0.5,0.5-0.7,1.1-0.8,1.9H352.9z"/>
	<path class="st2" d="M362.4,103.1c-0.3-0.2-0.7-0.3-1.2-0.3c-0.7,0-1.2,0.3-1.7,0.9c-0.4,0.6-0.7,1.4-0.7,2.5v4.8h-2.3v-10h2.3v2.1
		h0c0.2-0.7,0.6-1.3,1-1.6c0.5-0.4,1-0.6,1.5-0.6c0.4,0,0.7,0.1,0.9,0.2V103.1z"/>
	<path class="st2" d="M372.8,111.2c-1.5,0-2.8-0.5-3.7-1.4c-0.9-0.9-1.4-2.2-1.4-3.7c0-1.7,0.5-3,1.4-3.9s2.3-1.4,3.9-1.4
		c1.6,0,2.8,0.5,3.6,1.4c0.9,0.9,1.3,2.2,1.3,3.8c0,1.6-0.5,2.9-1.4,3.8C375.6,110.7,374.4,111.2,372.8,111.2z M372.9,102.5
		c-0.9,0-1.6,0.3-2.1,0.9c-0.5,0.6-0.8,1.5-0.8,2.6c0,1,0.3,1.9,0.8,2.5c0.5,0.6,1.2,0.9,2.1,0.9c0.9,0,1.6-0.3,2.1-0.9
		c0.5-0.6,0.7-1.4,0.7-2.5c0-1.1-0.2-1.9-0.7-2.5C374.4,102.8,373.8,102.5,372.9,102.5z"/>
	<path class="st2" d="M385,98c-0.3-0.2-0.7-0.3-1-0.3c-1.1,0-1.6,0.6-1.6,1.9v1.4h2.3v1.8h-2.3v8.2H380v-8.2h-1.7v-1.8h1.7v-1.6
		c0-1.1,0.3-1.9,1-2.5c0.7-0.6,1.6-0.9,2.6-0.9c0.6,0,1,0.1,1.3,0.2V98z"/>
	<path class="st2" d="M395.8,110.8c-0.4,0.2-1,0.3-1.7,0.3c-1.9,0-2.9-0.9-2.9-2.8v-5.6h-1.7v-1.8h1.7v-2.3l2.3-0.6v3h2.4v1.8h-2.4
		v5c0,0.6,0.1,1,0.3,1.3c0.2,0.3,0.6,0.4,1.1,0.4c0.4,0,0.7-0.1,1-0.3V110.8z"/>
	<path class="st2" d="M406,110.9h-2.3v-5.5c0-2-0.7-3-2-3c-0.7,0-1.2,0.3-1.7,0.9s-0.7,1.3-0.7,2.2v5.4h-2.3V96.1h2.3v6.5h0
		c0.8-1.3,1.8-1.9,3.2-1.9c2.2,0,3.3,1.4,3.3,4.1V110.9z"/>
	<path class="st2" d="M416.6,106.5h-6.8c0,0.9,0.3,1.6,0.9,2.1c0.5,0.5,1.3,0.8,2.2,0.8c1.1,0,2-0.3,2.9-1v1.8
		c-0.9,0.6-2.1,0.9-3.6,0.9c-1.5,0-2.6-0.5-3.5-1.4c-0.8-0.9-1.3-2.2-1.3-3.8c0-1.6,0.5-2.8,1.4-3.8c0.9-1,2.1-1.5,3.4-1.5
		s2.4,0.4,3.2,1.3c0.7,0.9,1.1,2.1,1.1,3.7V106.5z M414.4,104.9c0-0.8-0.2-1.4-0.6-1.9c-0.4-0.5-0.9-0.7-1.6-0.7
		c-0.7,0-1.2,0.2-1.7,0.7c-0.5,0.5-0.7,1.1-0.8,1.9H414.4z"/>
	<path class="st2" d="M433.1,96.9l-4.6,8.9v5.1h-2.3v-5l-4.5-9h2.6l2.8,6c0,0.1,0.1,0.3,0.3,0.8h0c0.1-0.2,0.2-0.5,0.3-0.8l2.9-6
		H433.1z"/>
	<path class="st2" d="M440.7,106.5h-6.8c0,0.9,0.3,1.6,0.9,2.1c0.5,0.5,1.3,0.8,2.2,0.8c1.1,0,2-0.3,2.9-1v1.8
		c-0.9,0.6-2.1,0.9-3.6,0.9c-1.5,0-2.6-0.5-3.5-1.4c-0.8-0.9-1.3-2.2-1.3-3.8c0-1.6,0.5-2.8,1.4-3.8c0.9-1,2.1-1.5,3.4-1.5
		s2.4,0.4,3.2,1.3c0.7,0.9,1.1,2.1,1.1,3.7V106.5z M438.5,104.9c0-0.8-0.2-1.4-0.6-1.9c-0.4-0.5-0.9-0.7-1.6-0.7
		c-0.7,0-1.2,0.2-1.7,0.7c-0.5,0.5-0.7,1.1-0.8,1.9H438.5z"/>
	<path class="st2" d="M449.9,110.9h-2.2v-1.6h0c-0.7,1.2-1.7,1.8-3,1.8c-1,0-1.8-0.3-2.3-0.8c-0.6-0.5-0.8-1.2-0.8-2.1
		c0-1.9,1.1-3,3.3-3.3l3-0.4c0-1.4-0.7-2.1-2-2.1c-1.2,0-2.3,0.4-3.2,1.2v-2c1.1-0.6,2.3-0.9,3.6-0.9c2.5,0,3.8,1.2,3.8,3.7V110.9z
		 M447.7,106l-2.1,0.3c-0.7,0.1-1.1,0.2-1.5,0.5c-0.3,0.2-0.5,0.6-0.5,1.2c0,0.4,0.2,0.8,0.5,1c0.3,0.3,0.7,0.4,1.2,0.4
		c0.7,0,1.3-0.2,1.7-0.7c0.5-0.5,0.7-1.1,0.7-1.8V106z"/>
	<path class="st2" d="M457.9,103.1c-0.3-0.2-0.7-0.3-1.2-0.3c-0.7,0-1.2,0.3-1.7,0.9c-0.4,0.6-0.7,1.4-0.7,2.5v4.8h-2.3v-10h2.3v2.1
		h0c0.2-0.7,0.6-1.3,1-1.6c0.5-0.4,1-0.6,1.5-0.6c0.4,0,0.7,0.1,0.9,0.2V103.1z"/>
	<path class="st2" d="M481.4,96.9l-3.8,14h-2.6l-2.7-9.8c-0.1-0.4-0.2-0.9-0.2-1.4h0c0,0.5-0.1,0.9-0.2,1.3l-2.7,9.8h-2.7l-3.9-14
		h2.5l2.5,10.2c0.1,0.4,0.2,0.9,0.2,1.3h0c0-0.3,0.1-0.8,0.3-1.3l2.9-10.2h2.4l2.7,10.3c0.1,0.4,0.2,0.8,0.2,1.2h0
		c0-0.3,0.1-0.8,0.2-1.3l2.5-10.3H481.4z"/>
	<path class="st2" d="M483.6,98.8c-0.4,0-0.7-0.1-1-0.4c-0.3-0.2-0.4-0.5-0.4-0.9s0.1-0.7,0.4-0.9c0.3-0.2,0.6-0.4,1-0.4
		c0.4,0,0.7,0.1,1,0.4s0.4,0.6,0.4,0.9c0,0.4-0.1,0.7-0.4,0.9C484.3,98.7,484,98.8,483.6,98.8z M484.7,110.9h-2.3v-10h2.3V110.9z"/>
	<path class="st2" d="M496,110.9h-2.3v-5.6c0-1.9-0.7-2.8-2-2.8c-0.7,0-1.3,0.3-1.7,0.8c-0.4,0.5-0.7,1.2-0.7,2v5.7h-2.3v-10h2.3
		v1.7h0c0.7-1.3,1.8-1.9,3.2-1.9c1.1,0,1.9,0.4,2.5,1.1c0.6,0.7,0.9,1.7,0.9,3.1V110.9z"/>
	<path class="st2" d="M507,110.9h-2.3v-5.6c0-1.9-0.7-2.8-2-2.8c-0.7,0-1.3,0.3-1.7,0.8c-0.4,0.5-0.7,1.2-0.7,2v5.7h-2.3v-10h2.3
		v1.7h0c0.7-1.3,1.8-1.9,3.2-1.9c1.1,0,1.9,0.4,2.5,1.1c0.6,0.7,0.9,1.7,0.9,3.1V110.9z"/>
	<path class="st2" d="M517.6,106.5h-6.8c0,0.9,0.3,1.6,0.9,2.1c0.5,0.5,1.3,0.8,2.2,0.8c1.1,0,2-0.3,2.9-1v1.8
		c-0.9,0.6-2.1,0.9-3.6,0.9c-1.5,0-2.6-0.5-3.5-1.4c-0.8-0.9-1.3-2.2-1.3-3.8c0-1.6,0.5-2.8,1.4-3.8c0.9-1,2.1-1.5,3.4-1.5
		c1.4,0,2.4,0.4,3.2,1.3c0.7,0.9,1.1,2.1,1.1,3.7V106.5z M515.5,104.9c0-0.8-0.2-1.4-0.6-1.9c-0.4-0.5-0.9-0.7-1.6-0.7
		c-0.7,0-1.2,0.2-1.7,0.7c-0.5,0.5-0.7,1.1-0.8,1.9H515.5z"/>
	<path class="st2" d="M525,103.1c-0.3-0.2-0.7-0.3-1.2-0.3c-0.7,0-1.2,0.3-1.7,0.9c-0.4,0.6-0.7,1.4-0.7,2.5v4.8h-2.3v-10h2.3v2.1h0
		c0.2-0.7,0.6-1.3,1-1.6c0.5-0.4,1-0.6,1.5-0.6c0.4,0,0.7,0.1,0.9,0.2V103.1z"/>
</g>
<g>
	<g>
		<path class="st1" d="M88.1,120.6v11.9h-3.7v-31.4h8.6c3.4,0,6,0.8,7.8,2.4c1.8,1.6,2.8,3.9,2.8,6.9c0,3-1,5.4-3.1,7.3
			c-2,1.9-4.8,2.8-8.3,2.8H88.1z M88.1,104.4v12.9H92c2.5,0,4.5-0.6,5.8-1.7c1.3-1.2,2-2.8,2-4.9c0-4.1-2.4-6.2-7.3-6.2H88.1z"/>
		<path class="st1" d="M123.2,132.4h-3.6v-3.5h-0.1c-1.6,2.7-3.9,4-6.9,4c-2.2,0-4-0.6-5.2-1.8c-1.3-1.2-1.9-2.7-1.9-4.7
			c0-4.2,2.5-6.6,7.4-7.3l6.7-0.9c0-3.8-1.5-5.7-4.6-5.7c-2.7,0-5.1,0.9-7.3,2.8v-3.7c2.2-1.4,4.7-2.1,7.6-2.1
			c5.3,0,7.9,2.8,7.9,8.4V132.4z M119.6,121.1l-5.4,0.7c-1.7,0.2-2.9,0.6-3.8,1.2c-0.8,0.6-1.3,1.6-1.3,3.1c0,1.1,0.4,2,1.2,2.7
			c0.8,0.7,1.8,1,3.1,1c1.8,0,3.2-0.6,4.4-1.9c1.2-1.2,1.7-2.8,1.7-4.7V121.1z"/>
		<path class="st1" d="M141.2,113.6c-0.6-0.5-1.5-0.7-2.7-0.7c-1.5,0-2.8,0.7-3.8,2.2c-1,1.4-1.5,3.4-1.5,5.9v11.4h-3.6V110h3.6v4.6
			h0.1c0.5-1.6,1.3-2.8,2.3-3.7c1-0.9,2.2-1.3,3.5-1.3c0.9,0,1.6,0.1,2.1,0.3V113.6z"/>
		<path class="st1" d="M156.3,132.2c-0.8,0.5-2,0.7-3.3,0.7c-3.9,0-5.9-2.2-5.9-6.6v-13.3h-3.8V110h3.8v-5.5l3.6-1.2v6.6h5.6v3.1
			h-5.6v12.6c0,1.5,0.3,2.6,0.8,3.2c0.5,0.6,1.4,1,2.5,1c0.9,0,1.7-0.2,2.3-0.7V132.2z"/>
		<path class="st1" d="M179.2,132.4h-3.6v-12.8c0-4.8-1.7-7.1-5.2-7.1c-1.8,0-3.3,0.7-4.5,2c-1.2,1.3-1.8,3.1-1.8,5.1v12.8h-3.6V110
			h3.6v3.7h0.1c1.7-2.8,4.1-4.2,7.3-4.2c2.4,0,4.3,0.8,5.6,2.4c1.3,1.6,1.9,3.9,1.9,6.9V132.4z"/>
		<path class="st1" d="M203.6,122.1h-15.8c0.1,2.5,0.7,4.4,2,5.8c1.3,1.4,3,2,5.3,2c2.5,0,4.8-0.8,7-2.5v3.4c-2,1.4-4.6,2.1-7.8,2.1
			c-3.2,0-5.6-1-7.5-3.1c-1.8-2-2.7-4.9-2.7-8.6c0-3.5,1-6.3,3-8.5c2-2.2,4.4-3.3,7.4-3.3c2.9,0,5.2,0.9,6.8,2.8
			c1.6,1.9,2.4,4.5,2.4,7.9V122.1z M199.9,119.1c0-2.1-0.5-3.7-1.5-4.8c-1-1.2-2.4-1.7-4.1-1.7c-1.7,0-3.1,0.6-4.3,1.8
			c-1.2,1.2-1.9,2.8-2.2,4.7H199.9z"/>
		<path class="st1" d="M220.2,113.6c-0.6-0.5-1.5-0.7-2.7-0.7c-1.5,0-2.8,0.7-3.8,2.2c-1,1.4-1.5,3.4-1.5,5.9v11.4h-3.6V110h3.6v4.6
			h0.1c0.5-1.6,1.3-2.8,2.3-3.7c1-0.9,2.2-1.3,3.5-1.3c0.9,0,1.6,0.1,2.1,0.3V113.6z"/>
	</g>
</g>
<g>
	<path class="st3" d="M150.2,177.6h-2.7v-10.5c0-0.9,0.1-1.9,0.2-3.1h0c-0.2,0.7-0.3,1.2-0.4,1.5l-4.8,12.1h-1.9l-4.8-12
		c-0.1-0.4-0.3-0.9-0.4-1.6h0c0.1,0.6,0.1,1.7,0.1,3.2v10.4h-2.5v-16.2h3.8l4.3,10.8c0.3,0.8,0.5,1.4,0.6,1.9h0.1
		c0.3-0.9,0.5-1.5,0.7-1.9l4.3-10.7h3.6V177.6z"/>
	<path class="st3" d="M153.8,163.6c-0.4,0-0.8-0.1-1.1-0.4c-0.3-0.3-0.5-0.6-0.5-1.1c0-0.4,0.2-0.8,0.5-1.1c0.3-0.3,0.7-0.4,1.1-0.4
		c0.4,0,0.8,0.1,1.1,0.4c0.3,0.3,0.5,0.6,0.5,1.1c0,0.4-0.2,0.8-0.5,1C154.6,163.5,154.2,163.6,153.8,163.6z M155,177.6h-2.6v-11.6
		h2.6V177.6z"/>
	<path class="st3" d="M165.3,177.1c-0.9,0.5-2,0.8-3.3,0.8c-1.7,0-3.1-0.5-4.2-1.6c-1.1-1.1-1.6-2.5-1.6-4.2c0-1.9,0.6-3.4,1.7-4.6
		c1.1-1.2,2.6-1.7,4.5-1.7c1.1,0,2,0.2,2.8,0.6v2.4c-0.8-0.6-1.7-0.9-2.6-0.9c-1.1,0-2,0.4-2.7,1.1c-0.7,0.7-1.1,1.7-1.1,2.9
		c0,1.2,0.3,2.1,1,2.8c0.7,0.7,1.6,1,2.7,1c0.9,0,1.8-0.3,2.7-1V177.1z"/>
	<path class="st3" d="M173.2,168.6c-0.3-0.2-0.8-0.4-1.4-0.4c-0.8,0-1.4,0.3-1.9,1c-0.5,0.7-0.8,1.7-0.8,2.9v5.5h-2.6v-11.6h2.6v2.4
		h0c0.3-0.8,0.6-1.4,1.2-1.9c0.5-0.5,1.1-0.7,1.8-0.7c0.5,0,0.8,0.1,1.1,0.2V168.6z"/>
	<path class="st3" d="M178.6,177.9c-1.8,0-3.2-0.5-4.3-1.6c-1.1-1.1-1.6-2.5-1.6-4.3c0-1.9,0.6-3.5,1.7-4.5c1.1-1.1,2.6-1.6,4.5-1.6
		c1.8,0,3.2,0.5,4.2,1.6c1,1.1,1.5,2.5,1.5,4.4c0,1.8-0.5,3.3-1.6,4.4C181.9,177.3,180.4,177.9,178.6,177.9z M178.7,167.9
		c-1,0-1.8,0.4-2.4,1.1c-0.6,0.7-0.9,1.7-0.9,3c0,1.2,0.3,2.2,0.9,2.9c0.6,0.7,1.4,1,2.4,1c1,0,1.8-0.3,2.4-1
		c0.6-0.7,0.8-1.7,0.8-2.9c0-1.3-0.3-2.3-0.8-2.9C180.5,168.2,179.7,167.9,178.7,167.9z"/>
	<path class="st3" d="M185.1,177.3v-2.4c1,0.7,2.1,1.1,3.2,1.1c1.6,0,2.4-0.5,2.4-1.4c0-0.3-0.1-0.5-0.2-0.7
		c-0.1-0.2-0.3-0.3-0.5-0.5c-0.2-0.1-0.5-0.3-0.8-0.4s-0.7-0.2-1-0.4c-0.5-0.2-0.9-0.4-1.3-0.6c-0.4-0.2-0.7-0.4-0.9-0.7
		c-0.3-0.3-0.4-0.6-0.6-0.9c-0.1-0.3-0.2-0.7-0.2-1.2c0-0.6,0.1-1,0.4-1.5c0.3-0.4,0.6-0.8,1.1-1.1c0.4-0.3,0.9-0.5,1.5-0.7
		c0.6-0.1,1.1-0.2,1.7-0.2c1.1,0,2,0.2,2.9,0.5v2.3c-0.8-0.6-1.7-0.8-2.8-0.8c-0.3,0-0.6,0-0.9,0.1c-0.3,0.1-0.5,0.2-0.7,0.3
		c-0.2,0.1-0.3,0.3-0.4,0.4c-0.1,0.2-0.2,0.4-0.2,0.6c0,0.2,0.1,0.5,0.2,0.6c0.1,0.2,0.3,0.3,0.5,0.5c0.2,0.1,0.5,0.3,0.7,0.4
		c0.3,0.1,0.6,0.2,1,0.4c0.5,0.2,0.9,0.4,1.3,0.6c0.4,0.2,0.7,0.4,1,0.7c0.3,0.3,0.5,0.6,0.6,0.9c0.2,0.3,0.2,0.8,0.2,1.2
		c0,0.6-0.1,1.1-0.4,1.5c-0.3,0.4-0.6,0.8-1.1,1.1c-0.5,0.3-1,0.5-1.6,0.6c-0.6,0.1-1.2,0.2-1.9,0.2
		C187.1,177.9,186,177.7,185.1,177.3z"/>
	<path class="st3" d="M199.5,177.9c-1.8,0-3.2-0.5-4.3-1.6c-1.1-1.1-1.6-2.5-1.6-4.3c0-1.9,0.6-3.5,1.7-4.5c1.1-1.1,2.6-1.6,4.5-1.6
		c1.8,0,3.2,0.5,4.2,1.6c1,1.1,1.5,2.5,1.5,4.4c0,1.8-0.5,3.3-1.6,4.4S201.4,177.9,199.5,177.9z M199.6,167.9c-1,0-1.8,0.4-2.4,1.1
		c-0.6,0.7-0.9,1.7-0.9,3c0,1.2,0.3,2.2,0.9,2.9c0.6,0.7,1.4,1,2.4,1c1,0,1.8-0.3,2.4-1c0.6-0.7,0.8-1.7,0.8-2.9
		c0-1.3-0.3-2.3-0.8-2.9C201.5,168.2,200.7,167.9,199.6,167.9z"/>
	<path class="st3" d="M212.9,162.7c-0.4-0.2-0.8-0.3-1.2-0.3c-1.3,0-1.9,0.7-1.9,2.2v1.6h2.7v2.1h-2.7v9.5h-2.6v-9.5h-2v-2.1h2v-1.9
		c0-1.2,0.4-2.2,1.2-2.9c0.8-0.7,1.8-1.1,3-1.1c0.6,0,1.2,0.1,1.5,0.2V162.7z"/>
	<path class="st3" d="M219.5,177.5c-0.5,0.3-1.2,0.4-2,0.4c-2.2,0-3.4-1.1-3.4-3.2v-6.5h-1.9v-2.1h1.9v-2.7l2.6-0.7v3.4h2.8v2.1
		h-2.8v5.8c0,0.7,0.1,1.2,0.4,1.5c0.2,0.3,0.7,0.4,1.2,0.4c0.4,0,0.8-0.1,1.2-0.4V177.5z"/>
</g>
<rect x="109.8" y="157" class="st4" width="11.4" height="11.4"/>
<rect x="96.5" y="157" class="st5" width="11.4" height="11.4"/>
<rect x="109.8" y="170.3" class="st6" width="11.4" height="11.4"/>
<rect x="96.5" y="170.3" class="st7" width="11.4" height="11.4"/>
<rect x="239.2" y="50.5" class="st8" width="2.9" height="136"/>
</svg>
